HIERARCHY
ROOT root
{
	OFFSET	0	13.1	24.9
	CHANNELS 6  Xposition Yposition Zposition Xrotation Yrotation Zrotation
	JOINT spine_1
	{
		OFFSET	0	9.99999	0
		CHANNELS 3  Xrotation Yrotation Zrotation
		JOINT spine_2
		{
			OFFSET	0	112	-10
			CHANNELS 3  Xrotation Yrotation Zrotation
			JOINT spine_3
			{
				OFFSET	0	206.5	19.3
				CHANNELS 3  Xrotation Yrotation Zrotation
				JOINT spine_4
				{
					OFFSET	0	110.4	14.6
					CHANNELS 3  Xrotation Yrotation Zrotation
					JOINT neck_1
					{
						OFFSET	0	71.8	-50.3
						CHANNELS 3  Xrotation Yrotation Zrotation
						JOINT neck_2
						{
							OFFSET	0	86.2	-25.8
							CHANNELS 3  Xrotation Yrotation Zrotation
							JOINT head_ee
							{
								OFFSET	0	179.8	-8.7
								CHANNELS 3  Xrotation Yrotation Zrotation
								End Site
								{
									OFFSET	1	0	0
								}
							}
						}
					}
					JOINT left_clavicle
					{
						OFFSET	-43.2	22.4	-70.8
						CHANNELS 3  Xrotation Yrotation Zrotation
						JOINT left_shoulder
						{
							OFFSET	-93.9	-5.79999	48.7
							CHANNELS 3  Xrotation Yrotation Zrotation
							JOINT left_elbow
							{
								OFFSET	-291.4	-30.8	15.2
								CHANNELS 3  Xrotation Yrotation Zrotation
								JOINT left_lowarm_twist
								{
									OFFSET	-110.7	-3.89999	13.6
									CHANNELS 3  Xrotation Yrotation Zrotation
									JOINT left_hand
									{
										OFFSET	-110.7	-3.89999	13.6
										CHANNELS 3  Xrotation Yrotation Zrotation
										JOINT left_ee
										{
											OFFSET	-80.8	-5.10001	12.1
											CHANNELS 3  Xrotation Yrotation Zrotation
											End Site
											{
												OFFSET	1	0	0
											}
										}
									}
								}
							}
						}
					}
					JOINT right_clavicle
					{
						OFFSET	43.2	22.4	-70.8
						CHANNELS 3  Xrotation Yrotation Zrotation
						JOINT right_shoulder
						{
							OFFSET	93.9	-5.79999	48.7
							CHANNELS 3  Xrotation Yrotation Zrotation
							JOINT right_elbow
							{
								OFFSET	291.4	-30.8	15.2
								CHANNELS 3  Xrotation Yrotation Zrotation
								JOINT right_lowarm_twist
								{
									OFFSET	110.7	-3.89999	13.6
									CHANNELS 3  Xrotation Yrotation Zrotation
									JOINT right_hand
									{
										OFFSET	110.7	-3.89999	13.6
										CHANNELS 3  Xrotation Yrotation Zrotation
										JOINT right_ee
										{
											OFFSET	80.8	-5.10001	12.1
											CHANNELS 3  Xrotation Yrotation Zrotation
											End Site
											{
												OFFSET	1	0	0
											}
										}
									}
								}
							}
						}
					}
				}
			}
		}
	}
	JOINT left_hip
	{
		OFFSET	-82.8	-127.5	0.300001
		CHANNELS 3  Xrotation Yrotation Zrotation
		JOINT left_knee
		{
			OFFSET	-28.2	-396.7	2.2
			CHANNELS 3  Xrotation Yrotation Zrotation
			JOINT left_ankle
			{
				OFFSET	-11.7	-411.3	35.4
				CHANNELS 3  Xrotation Yrotation Zrotation
				JOINT left_toes
				{
					OFFSET	0	-60	-88.6
					CHANNELS 3  Xrotation Yrotation Zrotation
					JOINT left_foot_ee
					{
						OFFSET	-22.5	-16.5	-42.2
						CHANNELS 3  Xrotation Yrotation Zrotation
						End Site
						{
							OFFSET	1	0	0
						}
					}
				}
			}
		}
	}
	JOINT right_hip
	{
		OFFSET	82.8	-127.5	0.300001
		CHANNELS 3  Xrotation Yrotation Zrotation
		JOINT right_knee
		{
			OFFSET	28.2	-396.7	2.2
			CHANNELS 3  Xrotation Yrotation Zrotation
			JOINT right_ankle
			{
				OFFSET	11.7	-411.3	35.4
				CHANNELS 3  Xrotation Yrotation Zrotation
				JOINT right_toes
				{
					OFFSET	0	-60	-88.6
					CHANNELS 3  Xrotation Yrotation Zrotation
					JOINT right_foot_ee
					{
						OFFSET	22.5	-16.5	-42.2
						CHANNELS 3  Xrotation Yrotation Zrotation
						End Site
						{
							OFFSET	1	0	0
						}
					}
				}
			}
		}
	}
}
MOTION
Frames: 6
Frame Time: 0.02
2349.22 746.287 -1494.45 -32.0849 83.8153 26.1289 0.964722 0.38827 2.82048 0.969123 0.208083 2.83945 0.98055 -0.345231 2.82606 0.969421 0.105238 2.84511 -6.57169 7.60055 -4.24596 -6.48386 17.1729 -2.78028 -0.0 0.0 -0.0 -3.22035 -1.92232 -6.58643 -9.78479 -32.0538 57.3476 2.25148 -48.1139 1.00521 -17.4967 -0.933457 2.02452 -1.53114 1.26653 -9.70274 -0.0 0.0 -0.0 7.99166 -8.2121 -15.2725 -19.3757 22.5406 -61.5763 0.54047 14.9886 -0.0711002 34.2613 0.0848939 4.31132 2.28522 -17.5848 -21.5892 0.0 0.0 0.0 6.00275 6.18373 1.29802 -17.9203 0.314595 2.72084 -0.768167 -7.62655 0.117198 -2.14882 0.0 0.0 -0.0 0.0 -0.0 9.96403 0.389257 5.06198 -21.5842 -0.273449 -3.28143 21.9094 4.88489 3.02869 0.544994 -0.0 -0.0 0.0 0.0 0.0 
2350.3 741.766 -1493.89 -49.0596 84.1801 43.2269 1.22798 0.32174 2.75233 1.23218 0.146018 2.76721 1.23994 -0.379769 2.74493 1.22943 0.058335 2.77045 -6.04868 6.93014 -5.27222 -5.91123 16.6818 -4.03307 -0.0 0.0 -0.0 -3.19951 -3.43574 -6.80467 -10.4847 -36.0852 57.2433 2.06708 -45.6731 0.870549 -14.0816 -0.703185 1.65298 -1.21103 2.33393 -7.06868 -0.0 0.0 -0.0 8.21834 -7.66929 -15.7249 -18.3752 20.9383 -61.0676 0.484116 13.486 -0.0572393 35.8726 0.152167 4.50599 3.25964 -11.7503 -26.5673 0.0 0.0 0.0 9.8851 -3.52524 2.60184 -23.2119 0.243688 3.52941 -5.31779 -1.87557 0.800276 -1.28184 0.0 0.0 -0.0 0.0 -0.0 10.6821 -0.330964 4.32188 -19.2885 -0.303426 -2.93046 23.7323 2.5935 3.2253 -1.07337 0.0 0.0 0.0 0.0 0.0 
2354.49 744.314 -1497.31 -69.8561 83.4377 64.5173 1.5304 0.0232837 2.63504 1.53425 -0.144379 2.63119 1.52772 -0.626614 2.55961 1.51864 -0.214654 2.6264 -5.12215 5.89717 -6.80769 -4.8972 15.9389 -5.93731 -0.0 0.0 -0.0 -3.19532 -5.11552 -7.07885 -11.6641 -39.7484 57.1632 1.70167 -40.1261 0.621518 -10.341 -0.476948 1.23129 -0.633186 2.02954 -3.35204 -0.0 0.0 -0.0 8.31509 -6.96429 -15.947 -17.199 19.3586 -61.1722 0.459739 12.83 -0.0516902 36.9637 0.200828 4.63673 3.70798 -7.01876 -28.3023 0.0 0.0 0.0 14.8616 -12.4581 2.99618 -28.7951 0.0883288 4.37182 -5.65675 4.7704 0.839498 -1.19096 0.0 0.0 -0.0 0.0 -0.0 11.7203 -1.63578 3.50087 -16.0046 -0.321817 -2.42701 26.2622 1.08035 3.50633 -3.38493 0.0 0.0 0.0 0.0 0.0 
2357.68 743.394 -1503.31 -75.4358 82.0763 70.4568 1.68797 -0.00171264 2.63646 1.69183 -0.169415 2.63101 1.68398 -0.644238 2.55659 1.67493 -0.232534 2.62619 -3.71771 5.43694 -7.88532 -3.39287 15.9753 -7.35855 -0.0 0.0 -0.0 -3.18069 -7.26526 -7.4013 -13.0795 -42.5492 57.3481 1.34248 -33.6232 0.405633 -6.96791 -0.296984 0.839246 0.126728 0.879853 1.2147 -0.0 0.0 -0.0 8.67984 -4.9805 -16.7537 -14.5731 18.1596 -61.8662 0.455014 12.7024 -0.0506459 38.0315 0.250854 4.76376 3.58856 -6.02875 -27.0631 0.0 0.0 0.0 24.4565 -16.7495 3.50176 -29.9385 0.0464175 4.5423 -11.6808 8.0665 1.74521 -4.58238 0.0 0.0 -0.0 0.0 -0.0 11.5146 -3.11295 1.5721 -14.6154 -0.320908 -2.21388 30.7612 1.70849 4.00538 -5.40687 0.0 0.0 0.0 0.0 0.0 
2353.9 745.687 -1506.41 -77.3226 81.7191 72.1813 1.65031 0.0440902 2.69593 1.65435 -0.127485 2.69327 1.64836 -0.615918 2.62505 1.6388 -0.193769 2.68932 -3.42606 5.41954 -7.41181 -3.12214 15.5926 -6.9111 -0.0 0.0 -0.0 -3.16336 -7.21471 -7.35716 -13.8547 -42.786 58.0826 1.31248 -33.0288 0.389148 -6.84506 -0.290868 0.824774 0.250309 1.12461 2.14008 -0.0 0.0 -0.0 8.91391 -5.0414 -17.2039 -13.7622 18.4122 -62.0425 0.46013 12.8405 -0.0517769 38.3194 0.264749 4.79786 3.47725 -5.13297 -25.9171 0.0 0.0 0.0 25.378 -16.9011 3.68673 -30.7089 0.0162608 4.65668 -10.0845 7.7636 1.50379 -4.38 0.0 0.0 -0.0 0.0 -0.0 11.9216 -3.38847 1.74271 -14.4508 -0.320458 -2.18864 30.3513 1.07149 3.95626 -5.77564 0.0 0.0 0.0 0.0 0.0 
2354.29 748.057 -1512.73 -74.2846 81.6337 69.0638 1.63582 0.128881 2.68594 1.63983 -0.0422302 2.68869 1.63794 -0.531647 2.63598 1.62825 -0.108828 2.68682 -2.99947 5.41333 -6.70909 -2.72517 15.0527 -6.23869 -0.0 0.0 -0.0 -3.18451 -7.13446 -7.38807 -15.1179 -42.9335 58.7245 1.27017 -32.1768 0.36635 -6.66841 -0.282129 0.803943 0.413914 1.47711 3.37588 -0.0 0.0 -0.0 9.07338 -5.17922 -17.5052 -13.1345 18.6138 -62.1453 0.45954 12.8246 -0.0516459 38.71 0.283872 4.844 3.31319 -3.90872 -24.2635 0.0 0.0 0.0 26.7654 -17.1881 3.67679 -31.8108 -0.0295409 4.81957 -7.80819 7.46658 1.16062 -4.09288 0.0 0.0 -0.0 0.0 -0.0 12.073 -3.63664 2.51451 -14.5209 -0.320658 -2.19939 29.6584 0.148049 3.87486 -6.31136 0.0 0.0 0.0 0.0 0.0 
